<?xml version="1.0" encoding="UTF-8" standalone="no"?>
<!DOCTYPE svg PUBLIC "-//W3C//DTD SVG 1.1//EN" "http://www.w3.org/Graphics/SVG/1.1/DTD/svg11.dtd">
<svg width="100%" height="100%" viewBox="0 0 673 211" version="1.1" xmlns="http://www.w3.org/2000/svg" xmlns:xlink="http://www.w3.org/1999/xlink" xml:space="preserve" xmlns:serif="http://www.serif.com/" style="fill-rule:evenodd;clip-rule:evenodd;stroke-linejoin:round;stroke-miterlimit:2;">
    <g id="Camada_2_cópia">
        <path d="M652.7,44.8L506.3,44.8L538.3,76.8L620.6,76.8L620.6,89.5L551,89.5L583,121.5L595.8,134.2L627.8,166.3L673,166.3L654.2,147.4L654.2,147.1L641.3,134.2L641,134.2L628.3,121.5L652.7,121.5L652.7,44.8Z" style="fill:rgb(116,76,251);fill-rule:nonzero;"/>
        <path d="M577.8,134.2L469.3,134.2L469.3,76.8L520.3,76.8L488.3,44.8L437.2,44.8L437.2,166.3L609.8,166.3L577.8,134.2Z" style="fill:rgb(116,76,251);fill-rule:nonzero;"/>
        <path d="M483.9,122.5L565,122.5L533,90.4L483.9,90.4L483.9,122.5Z" style="fill:rgb(116,76,251);fill-rule:nonzero;"/>
        <path d="M424.5,44.8L392.5,44.8L392.5,136.7L345.7,44.8L292.6,44.8L292.6,166.3L324.6,166.3L324.6,73.9L371.6,166.3L424.5,166.3L424.5,44.8Z" style="fill:rgb(116,76,251);fill-rule:nonzero;"/>
        <path d="M159.1,44.8L159.1,158.6L122,121.5L146.3,121.5L146.3,44.8L0,44.8L32,76.8L114.3,76.8L114.3,89.5L44.7,89.5L121.5,166.3L279.8,166.3L279.8,44.8L159.1,44.8ZM247.8,134.2L191.1,134.2L191.1,76.8L247.8,76.8L247.8,134.2Z" style="fill:rgb(116,76,251);fill-rule:nonzero;"/>
        <path d="M0,32L474.6,32L442.6,0L0,0L0,32Z" style="fill:rgb(116,76,251);fill-rule:nonzero;"/>
        <path d="M653.6,211L0,211L0,62.8L32,94.8L32,179L621.5,179L653.6,211Z" style="fill:rgb(116,76,251);fill-rule:nonzero;"/>
    </g>
</svg>
